<?xml version="1.0" standalone="no"?>
<!DOCTYPE svg PUBLIC "-//W3C//DTD SVG 20010904//EN"
 "http://www.w3.org/TR/2001/REC-SVG-20010904/DTD/svg10.dtd">
<svg version="1.0" xmlns="http://www.w3.org/2000/svg"
 width="700.000000pt" height="900.000000pt" viewBox="0 0 700.000000 900.000000"
 preserveAspectRatio="xMidYMid meet">

<g transform="translate(0.000000,900.000000) scale(0.100000,-0.100000)"
fill="#000000" stroke="none">
<path d="M0 4500 l0 -4500 3500 0 3500 0 -2 4497 -3 4498 -3497 3 -3498 2 0
-4500z m6920 0 l0 -4420 -3425 0 -3425 0 0 4420 0 4420 3425 0 3425 0 0 -4420z"/>
<path d="M3415 7603 c-91 -9 -348 -56 -455 -83 -376 -98 -628 -214 -890 -411
-282 -213 -416 -424 -477 -753 -24 -124 -23 -473 0 -639 9 -65 17 -146 17
-181 l0 -63 -49 -7 c-60 -8 -110 -40 -134 -86 -27 -52 -18 -208 22 -370 43
-174 54 -298 39 -413 -7 -51 -13 -128 -13 -173 0 -75 3 -87 42 -165 24 -48 72
-120 112 -167 38 -46 72 -91 75 -100 3 -9 12 -78 21 -152 21 -176 60 -410 81
-480 55 -186 292 -492 585 -757 219 -198 482 -412 549 -447 97 -51 195 -75
365 -87 213 -16 435 -6 555 24 169 43 260 96 420 243 41 38 131 116 199 173
331 279 632 649 700 861 6 19 29 160 50 312 25 175 47 293 59 320 10 24 47 77
82 118 101 121 150 246 136 344 -32 212 -25 374 24 562 40 154 49 277 26 338
-25 65 -66 96 -126 96 -29 0 -52 6 -60 15 -17 21 -8 212 15 305 15 59 19 113
19 260 0 162 -4 201 -27 317 -75 362 -184 539 -464 749 -302 228 -645 371
-1098 458 -128 24 -307 48 -342 44 -10 -1 -36 -3 -58 -5z m428 -113 c227 -47
354 -83 500 -141 351 -140 673 -368 809 -574 117 -177 188 -458 188 -740 -1
-84 -7 -170 -16 -215 -8 -41 -18 -140 -21 -220 -5 -134 -4 -147 14 -169 16
-20 32 -25 82 -29 57 -4 65 -7 83 -36 17 -27 19 -43 14 -131 -3 -57 -16 -139
-30 -191 -13 -50 -30 -135 -36 -189 -12 -92 -11 -132 6 -390 7 -108 -12 -170
-76 -250 -148 -184 -148 -183 -185 -453 -53 -384 -64 -423 -161 -570 -136
-204 -343 -432 -554 -611 -69 -58 -175 -151 -236 -206 -128 -115 -194 -157
-303 -196 -124 -44 -212 -52 -489 -46 -375 8 -407 20 -692 257 -234 196 -245
205 -413 370 -183 178 -347 382 -415 516 -51 100 -86 266 -121 565 -11 96 -26
180 -35 198 -9 16 -43 60 -76 97 -69 78 -126 182 -139 251 -7 33 -5 74 5 133
27 166 16 318 -41 553 -58 237 -36 326 77 327 24 0 46 8 64 23 26 23 27 28 27
113 0 49 -8 159 -18 244 -21 181 -16 475 10 600 59 289 192 488 455 684 249
186 517 308 855 391 405 99 538 104 868 35z"/>
</g>
</svg>
