<?xml version="1.0" standalone="no"?>
<!DOCTYPE svg PUBLIC "-//W3C//DTD SVG 20010904//EN"
 "http://www.w3.org/TR/2001/REC-SVG-20010904/DTD/svg10.dtd">
<svg version="1.0" xmlns="http://www.w3.org/2000/svg"
 width="702.000000pt" height="980.000000pt" viewBox="0 0 702.000000 980.000000"
 preserveAspectRatio="xMidYMid meet">

<g transform="translate(0.000000,980.000000) scale(0.100000,-0.100000)"
fill="#000000" stroke="none">
<path d="M10 4900 l0 -4900 3505 0 3505 0 -2 4898 -3 4897 -3502 3 -3503 2 0
-4900z m6930 0 l0 -4820 -3425 0 -3425 0 0 4820 0 4820 3425 0 3425 0 0 -4820z"/>
<path d="M3268 8520 c-498 -84 -890 -224 -1203 -430 -428 -282 -614 -549 -686
-985 -19 -117 -17 -498 4 -650 10 -65 17 -160 17 -210 l0 -90 -62 -12 c-70
-14 -104 -35 -133 -84 -17 -28 -20 -52 -20 -144 0 -91 7 -137 38 -271 48 -210
62 -346 47 -462 -24 -175 -24 -251 -1 -316 29 -84 92 -185 172 -277 75 -88 72
-78 94 -279 34 -298 76 -508 125 -617 96 -212 379 -544 720 -843 197 -173 404
-343 469 -387 136 -91 271 -120 600 -128 490 -11 660 43 946 305 50 45 153
135 230 200 371 311 712 737 779 971 8 30 29 155 46 279 55 408 61 430 169
555 72 83 124 178 142 258 10 47 10 81 0 175 -15 144 -16 340 -1 424 6 35 22
104 35 153 64 242 57 386 -21 455 -29 25 -43 30 -84 30 -82 0 -80 -3 -80 129
0 78 7 147 20 211 55 255 27 623 -69 908 -76 226 -187 379 -406 557 -307 249
-706 430 -1167 530 -319 68 -511 80 -720 45z m592 -95 c350 -71 555 -137 795
-254 272 -134 546 -335 668 -489 103 -132 176 -305 221 -526 55 -266 57 -444
10 -675 -21 -101 -25 -146 -22 -237 3 -108 4 -115 30 -141 23 -23 38 -28 93
-31 56 -4 68 -8 82 -29 38 -58 33 -189 -16 -375 -53 -206 -63 -402 -30 -619
19 -129 -21 -236 -135 -367 -110 -125 -123 -162 -166 -487 -52 -394 -64 -434
-188 -617 -167 -244 -387 -484 -637 -693 -71 -60 -175 -150 -230 -200 -118
-107 -170 -144 -268 -190 -154 -74 -194 -79 -552 -80 -489 0 -514 9 -863 300
-362 303 -542 477 -712 689 -135 168 -210 294 -248 416 -23 77 -64 325 -87
530 -19 168 -35 212 -103 284 -97 103 -170 237 -178 328 -3 29 1 93 10 142 30
166 17 329 -45 589 -22 92 -32 158 -33 218 -1 127 16 150 129 163 72 9 89 30
93 119 2 39 -6 153 -17 253 -26 222 -28 499 -5 651 45 304 175 550 387 734
371 322 784 500 1426 615 192 34 350 28 591 -21z"/>
</g>
</svg>
